<svg id="svg" version="1.1" xmlns="http://www.w3.org/2000/svg" xmlns:xlink="http://www.w3.org/1999/xlink" width="400" height="249.52015355086374" viewBox="0, 0, 400,249.52015355086374"><g id="svgg"><path id="path0" d="M0.000 124.766 L 0.000 249.532 200.000 249.532 L 400.000 249.532 400.000 124.766 L 400.000 0.000 200.000 0.000 L 0.000 0.000 0.000 124.766 M163.943 56.523 C 165.109 56.725,166.288 56.989,166.563 57.109 C 166.837 57.229,167.679 57.590,168.434 57.912 C 178.217 62.080,183.554 73.808,179.987 83.299 C 179.555 84.448,179.575 84.649,180.549 88.958 C 181.962 95.213,181.740 95.693,177.714 95.090 C 172.703 94.338,171.767 94.402,169.108 95.678 C 167.801 96.305,166.525 96.820,166.273 96.822 C 166.021 96.824,165.365 96.988,164.816 97.186 C 163.361 97.710,157.243 97.701,155.583 97.172 C 154.897 96.953,153.943 96.658,153.462 96.515 C 148.096 94.922,143.481 90.424,140.846 84.217 C 138.543 78.792,139.663 69.536,143.156 65.131 C 145.019 62.780,147.906 60.120,149.844 58.967 C 151.465 58.002,155.095 56.653,156.140 56.626 C 156.520 56.617,157.056 56.512,157.330 56.394 C 158.124 56.053,161.632 56.121,163.943 56.523 M157.455 57.618 C 155.754 57.814,154.316 58.203,153.130 58.790 C 152.742 58.982,152.287 59.139,152.120 59.139 C 151.694 59.139,148.212 61.457,146.961 62.574 C 145.024 64.304,141.984 68.869,141.984 70.048 C 141.984 70.228,141.880 70.570,141.753 70.808 C 140.778 72.637,140.461 77.754,141.129 80.880 C 141.552 82.859,141.637 83.115,142.449 84.868 C 142.742 85.501,142.982 86.082,142.982 86.161 C 142.982 87.035,147.231 91.851,148.975 92.953 C 155.885 97.319,162.319 97.694,169.598 94.156 L 171.387 93.286 174.714 93.559 C 176.544 93.709,178.518 93.899,179.102 93.981 C 180.366 94.159,180.494 93.792,179.934 91.578 C 178.296 85.093,178.280 84.782,179.398 81.100 C 179.800 79.777,179.717 73.447,179.282 72.240 C 179.084 71.691,178.920 71.045,178.918 70.805 C 178.907 69.437,175.213 63.958,173.136 62.229 C 172.540 61.732,171.996 61.245,171.928 61.148 C 171.715 60.844,168.675 59.139,168.346 59.139 C 168.175 59.139,167.928 59.040,167.798 58.920 C 166.757 57.957,160.910 57.221,157.455 57.618 M233.188 62.608 C 233.600 62.831,234.403 63.474,234.973 64.037 C 235.544 64.601,236.329 65.142,236.719 65.240 C 237.818 65.516,239.367 66.933,240.038 68.276 C 240.715 69.631,240.694 69.109,240.419 77.864 L 240.242 83.488 241.390 84.670 C 242.022 85.320,242.612 86.158,242.701 86.532 C 242.791 86.906,242.987 87.367,243.138 87.558 C 244.480 89.253,242.091 96.070,240.155 96.070 C 239.993 96.070,239.722 96.238,239.551 96.444 C 239.380 96.650,238.942 96.818,238.578 96.818 C 236.847 96.818,236.806 96.971,236.806 103.354 C 236.806 109.071,236.986 110.685,237.722 111.561 C 237.905 111.777,238.054 112.072,238.054 112.215 C 238.054 112.507,239.590 113.905,241.563 115.409 C 243.738 117.066,248.226 121.660,250.156 124.205 C 250.293 124.386,250.521 124.670,250.662 124.837 C 251.013 125.252,253.375 128.823,253.504 129.133 C 253.561 129.270,254.017 130.056,254.519 130.880 C 255.473 132.447,257.268 136.105,257.268 136.483 C 257.268 136.604,257.432 137.021,257.634 137.410 C 259.567 141.138,261.397 148.295,262.535 156.581 C 263.303 162.175,262.687 173.610,261.502 175.730 C 261.369 175.968,261.260 176.317,261.260 176.506 C 261.260 176.848,260.376 179.648,259.671 181.535 C 257.044 188.570,251.476 193.743,245.797 194.423 C 244.763 194.547,243.753 194.707,243.552 194.779 C 243.135 194.928,239.184 194.468,237.679 194.094 C 237.130 193.958,236.232 193.764,235.683 193.663 C 235.134 193.562,234.440 193.346,234.140 193.184 C 233.840 193.021,233.408 192.888,233.180 192.888 C 232.951 192.888,232.410 192.729,231.978 192.534 C 231.545 192.338,230.430 191.929,229.499 191.624 C 228.569 191.319,227.748 190.973,227.676 190.856 C 227.603 190.739,227.373 190.643,227.165 190.643 C 226.637 190.643,220.564 187.793,218.748 186.692 C 218.217 186.370,216.925 185.658,215.878 185.108 C 214.831 184.559,213.616 183.839,213.179 183.508 C 212.743 183.178,212.303 182.907,212.203 182.907 C 211.136 182.907,197.913 172.875,193.805 168.950 C 193.006 168.186,191.951 167.224,191.461 166.812 C 190.293 165.831,185.837 161.428,184.325 159.763 C 183.672 159.042,183.082 158.453,183.016 158.453 C 182.631 158.453,182.058 161.232,181.395 166.313 C 181.014 169.228,180.304 171.420,179.877 170.994 C 179.580 170.697,179.691 168.559,180.120 166.313 C 180.277 165.490,180.583 163.749,180.800 162.445 C 181.017 161.142,181.299 159.533,181.427 158.871 C 181.764 157.124,181.767 157.135,180.480 155.544 C 179.831 154.742,179.211 153.974,179.102 153.837 C 178.994 153.699,178.670 153.306,178.382 152.963 C 178.094 152.620,177.176 151.441,176.342 150.343 C 175.508 149.245,174.759 148.291,174.678 148.222 C 174.266 147.873,170.858 142.882,169.537 140.692 C 169.014 139.824,168.495 139.077,168.385 139.031 C 168.275 138.985,168.185 138.832,168.185 138.691 C 168.185 138.550,167.635 137.521,166.963 136.404 C 162.921 129.685,161.934 125.608,163.837 123.499 C 164.032 123.282,164.194 122.889,164.196 122.625 C 164.201 121.938,164.481 121.590,165.267 121.291 C 165.981 121.019,166.056 119.246,165.406 117.983 C 164.397 116.021,165.034 115.783,171.304 115.783 C 177.276 115.783,177.294 115.787,177.673 117.244 C 178.070 118.767,178.667 121.817,178.888 123.447 C 179.116 125.137,179.323 125.301,180.075 124.392 C 181.985 122.079,182.111 121.973,182.703 122.161 C 183.945 122.555,184.139 124.222,183.356 127.760 C 182.941 129.637,182.818 133.216,183.155 133.622 C 184.685 135.466,186.978 136.058,187.245 134.678 C 187.403 133.860,188.069 132.377,188.522 131.837 C 188.659 131.673,189.154 130.997,189.622 130.336 C 191.275 127.997,195.143 125.146,199.626 122.960 C 203.768 120.940,204.636 120.606,207.950 119.758 C 210.353 119.142,214.847 116.305,214.847 115.403 C 214.847 115.326,215.073 114.958,215.350 114.584 C 216.662 112.809,217.780 107.923,216.934 107.658 C 216.678 107.578,216.301 107.408,216.095 107.280 C 215.889 107.153,215.496 106.944,215.221 106.816 C 214.166 106.326,211.104 102.969,211.104 102.302 C 211.104 102.121,210.952 101.796,210.766 101.579 C 210.580 101.363,210.229 100.568,209.986 99.813 C 209.743 99.058,209.397 97.991,209.217 97.442 C 208.130 94.129,207.926 88.304,208.512 77.293 C 208.604 75.553,208.565 74.610,208.401 74.610 C 207.513 74.610,207.564 71.970,208.487 70.202 C 208.689 69.813,208.856 69.350,208.857 69.174 C 208.858 68.836,209.516 67.718,210.030 67.179 C 210.509 66.677,212.312 66.126,213.473 66.126 C 214.431 66.126,214.594 66.032,215.190 65.130 C 216.660 62.909,220.572 61.926,222.942 63.181 C 223.629 63.545,223.781 63.530,225.313 62.955 C 228.228 61.861,231.536 61.715,233.188 62.608 M226.700 63.800 C 224.341 64.649,223.315 64.763,222.378 64.278 C 220.166 63.134,217.031 64.073,215.927 66.211 C 215.316 67.392,214.870 67.641,213.600 67.506 C 211.381 67.270,210.679 67.835,209.360 70.916 C 208.244 73.522,208.792 74.019,212.480 73.743 C 214.805 73.569,214.886 73.543,214.711 73.026 C 214.043 71.044,214.481 68.831,215.466 69.209 C 215.828 69.348,215.879 69.560,215.746 70.388 C 215.231 73.611,219.119 77.464,223.219 77.793 C 225.513 77.977,225.870 77.615,224.687 76.306 C 223.376 74.855,222.213 71.874,222.812 71.503 C 223.343 71.176,224.013 71.848,224.177 72.872 C 224.778 76.628,229.473 78.975,231.843 76.704 C 232.240 76.325,232.564 75.879,232.564 75.713 C 232.564 75.096,233.385 75.131,234.516 75.796 C 237.135 77.337,238.671 77.664,238.905 76.731 C 239.149 75.758,238.689 75.359,237.324 75.359 C 235.983 75.359,235.462 75.006,235.819 74.340 C 236.016 73.972,236.196 73.936,236.866 74.128 C 239.052 74.755,239.551 74.279,239.551 71.565 C 239.551 69.004,238.748 67.504,236.851 66.524 C 235.943 66.054,235.808 66.185,235.808 67.531 C 235.808 69.486,232.887 71.756,230.615 71.568 C 229.540 71.478,229.356 70.880,230.318 70.606 C 232.591 69.959,233.165 69.695,233.941 68.942 C 235.510 67.418,234.879 65.038,232.510 63.556 C 231.483 62.913,228.858 63.023,226.700 63.800 M157.396 70.498 C 158.100 70.708,159.009 71.212,159.418 71.621 C 160.341 72.544,160.635 72.542,161.553 71.607 C 163.232 69.896,166.379 69.876,167.988 71.564 C 169.767 73.430,170.067 77.600,168.516 78.888 C 168.334 79.039,168.185 79.296,168.185 79.458 C 168.185 80.087,165.434 83.043,163.466 84.529 C 161.314 86.154,159.968 86.544,159.157 85.777 C 158.976 85.605,158.323 85.128,157.708 84.716 C 150.976 80.215,149.356 72.411,154.748 70.459 C 155.856 70.058,155.915 70.059,157.396 70.498 M212.199 75.041 L 209.925 75.406 209.767 77.316 C 209.013 86.465,209.513 96.203,210.863 98.624 C 210.996 98.862,211.105 99.199,211.107 99.373 C 211.112 100.076,212.349 102.278,213.546 103.718 C 216.009 106.677,220.716 107.868,223.797 106.312 C 224.021 106.199,224.822 105.811,225.577 105.451 C 227.619 104.475,229.204 103.404,230.681 102.002 C 231.462 101.262,231.890 101.220,232.017 101.873 C 232.154 102.581,226.648 106.800,225.587 106.800 C 225.362 106.800,225.060 106.918,224.915 107.062 C 224.503 107.474,222.128 108.078,220.212 108.258 L 218.465 108.422 218.176 110.168 C 217.885 111.922,217.413 113.434,216.958 114.070 C 216.823 114.257,216.503 114.803,216.246 115.284 C 215.988 115.764,215.272 116.683,214.653 117.325 L 213.528 118.493 214.088 119.874 C 215.501 123.356,219.507 124.527,223.082 122.504 C 223.288 122.388,224.017 122.004,224.704 121.652 C 225.390 121.300,226.176 120.873,226.450 120.703 C 227.447 120.085,228.453 119.402,228.731 119.155 C 228.887 119.016,229.327 118.677,229.709 118.403 C 230.740 117.661,233.067 115.747,233.809 115.030 C 234.166 114.685,234.734 114.176,235.071 113.899 C 236.571 112.668,236.614 112.534,236.060 110.800 C 235.614 109.405,235.559 108.559,235.562 103.211 C 235.566 95.847,235.498 96.159,237.142 95.935 C 238.504 95.749,241.048 94.297,241.048 93.706 C 241.048 93.530,241.201 93.259,241.389 93.103 C 242.417 92.250,242.412 87.787,241.381 86.568 C 241.198 86.351,241.047 86.071,241.045 85.944 C 241.039 85.533,239.427 84.657,238.339 84.473 C 237.089 84.261,236.883 83.296,238.054 83.131 C 238.932 83.008,239.044 82.720,239.048 80.563 C 239.052 78.547,238.936 78.353,237.730 78.353 C 237.054 78.353,235.058 77.624,234.541 77.188 C 233.965 76.703,233.638 76.772,232.612 77.595 C 231.412 78.558,229.550 78.995,228.030 78.671 C 227.172 78.488,226.739 78.509,226.294 78.755 C 225.596 79.143,221.937 79.220,221.709 78.852 C 221.624 78.715,221.377 78.603,221.160 78.603 C 220.389 78.603,218.662 77.542,217.078 76.096 C 215.313 74.484,215.462 74.517,212.199 75.041 M215.641 80.473 C 216.186 81.670,213.864 83.239,212.688 82.468 C 211.877 81.937,211.956 81.249,212.913 80.495 C 214.009 79.632,215.253 79.622,215.641 80.473 M225.301 80.574 C 226.229 81.441,226.279 81.952,225.486 82.471 C 224.451 83.149,222.583 82.107,222.583 80.851 C 222.583 79.563,224.058 79.413,225.301 80.574 M218.647 88.869 C 218.708 93.130,218.762 93.669,219.152 93.860 C 219.392 93.977,219.785 94.170,220.025 94.288 C 220.874 94.705,220.518 95.193,219.307 95.271 C 217.365 95.397,217.342 95.331,217.342 89.481 C 217.342 84.265,217.368 84.092,218.127 84.092 C 218.546 84.092,218.584 84.449,218.647 88.869 M214.886 85.911 C 215.107 86.324,215.072 86.487,214.706 86.755 C 213.610 87.557,212.531 86.444,213.482 85.493 C 213.938 85.037,214.509 85.207,214.886 85.911 M224.208 85.851 C 224.400 86.454,223.950 87.087,223.331 87.087 C 222.713 87.087,222.329 86.534,222.497 85.888 C 222.693 85.141,223.974 85.113,224.208 85.851 M239.797 87.706 C 240.052 88.013,239.993 88.119,239.453 88.324 C 238.747 88.592,238.650 88.831,239.075 89.256 C 239.379 89.560,238.973 90.580,238.548 90.580 C 238.418 90.580,238.029 91.138,237.683 91.820 C 236.866 93.432,236.307 93.313,236.307 91.527 C 236.307 88.924,238.665 86.343,239.797 87.706 M226.529 95.665 C 226.757 98.383,223.865 102.048,221.173 102.452 C 219.924 102.639,219.124 102.103,217.973 100.312 L 217.412 99.439 219.561 98.382 C 220.743 97.801,221.840 97.323,222.000 97.321 C 222.161 97.319,222.329 97.233,222.375 97.130 C 222.420 97.027,222.997 96.663,223.657 96.319 C 224.316 95.976,225.095 95.441,225.389 95.129 C 226.097 94.378,226.434 94.537,226.529 95.665 M223.206 97.977 C 222.383 98.419,221.290 98.904,220.778 99.056 C 220.265 99.207,219.737 99.535,219.603 99.785 C 219.080 100.763,221.190 101.854,222.013 101.032 C 222.166 100.878,222.550 100.624,222.867 100.466 C 223.608 100.097,224.887 98.197,224.783 97.618 C 224.712 97.221,224.543 97.259,223.206 97.977 M235.629 115.028 C 234.188 116.391,230.115 119.673,228.946 120.413 C 228.534 120.674,228.135 120.972,228.059 121.077 C 227.984 121.181,227.029 121.728,225.938 122.291 C 224.848 122.855,223.843 123.398,223.706 123.498 C 222.392 124.459,217.722 124.846,216.270 124.114 C 214.992 123.471,213.860 122.251,213.169 120.774 C 212.815 120.019,212.491 119.358,212.448 119.306 C 212.404 119.253,211.744 119.506,210.981 119.867 C 210.218 120.228,209.503 120.524,209.393 120.524 C 209.046 120.524,205.776 121.552,204.953 121.920 C 204.520 122.113,204.056 122.271,203.921 122.271 C 203.786 122.271,203.354 122.438,202.961 122.644 C 202.567 122.849,202.072 123.017,201.859 123.018 C 201.646 123.019,201.366 123.125,201.235 123.254 C 201.105 123.384,200.105 123.957,199.014 124.527 C 193.945 127.179,190.140 130.722,188.655 134.173 C 187.768 136.235,187.940 136.630,190.393 138.153 C 191.560 138.878,193.244 139.925,194.136 140.482 C 195.028 141.038,195.983 141.629,196.257 141.794 C 196.532 141.959,197.486 142.557,198.378 143.121 C 199.270 143.686,200.954 144.733,202.121 145.447 C 203.288 146.161,204.916 147.189,205.739 147.731 C 206.563 148.273,207.517 148.837,207.859 148.985 C 208.202 149.133,208.819 149.508,209.232 149.817 C 209.644 150.127,210.150 150.457,210.356 150.551 C 210.561 150.646,211.024 150.918,211.383 151.157 C 211.932 151.522,213.859 152.728,215.970 154.028 C 216.245 154.197,217.199 154.794,218.091 155.354 C 218.983 155.915,220.252 156.701,220.912 157.101 C 221.571 157.502,222.638 158.177,223.283 158.602 C 224.896 159.665,226.095 160.264,226.266 160.093 C 226.401 159.957,225.803 156.973,225.307 155.316 C 224.928 154.048,225.009 153.667,225.639 153.757 C 226.072 153.818,226.247 154.065,226.401 154.835 C 226.511 155.384,226.764 156.353,226.962 156.989 C 227.161 157.625,227.324 158.474,227.324 158.875 C 227.324 160.568,228.439 160.878,231.602 160.063 C 234.459 159.328,241.079 159.719,244.575 160.830 C 245.211 161.032,245.909 161.198,246.126 161.198 C 246.343 161.198,246.946 161.382,247.465 161.608 C 247.984 161.834,248.746 162.157,249.158 162.326 C 252.642 163.758,255.702 165.617,259.139 168.389 C 261.025 169.910,261.416 170.063,261.606 169.353 C 261.911 168.218,261.755 159.811,261.388 157.580 C 261.185 156.344,261.017 154.847,261.015 154.252 C 261.011 153.182,260.890 152.585,259.640 147.473 C 259.288 146.032,258.879 144.348,258.731 143.731 C 258.584 143.113,258.362 142.501,258.239 142.371 C 258.117 142.240,258.016 141.959,258.015 141.747 C 258.014 141.534,257.845 141.038,257.640 140.645 C 257.435 140.252,257.268 139.789,257.268 139.616 C 257.268 137.640,251.568 127.722,247.801 123.144 C 245.332 120.142,238.157 113.778,237.257 113.792 C 237.078 113.794,236.345 114.351,235.629 115.028 M166.687 117.997 C 166.687 118.529,166.856 119.441,167.062 120.025 C 167.268 120.608,167.436 121.371,167.436 121.720 C 167.436 122.732,171.908 126.734,174.017 127.609 C 175.469 128.212,176.215 128.115,177.292 127.183 L 178.249 126.357 177.694 123.253 C 177.389 121.546,176.977 119.603,176.779 118.936 C 176.581 118.268,176.419 117.566,176.419 117.376 C 176.419 117.094,175.533 117.031,171.553 117.031 L 166.687 117.031 166.687 117.997 M175.792 117.524 C 175.875 117.659,175.814 118.010,175.657 118.304 C 175.087 119.369,170.936 118.704,171.354 117.615 C 171.507 117.214,175.549 117.132,175.792 117.524 M165.339 122.704 C 165.109 122.935,165.163 123.971,165.415 124.127 C 165.811 124.371,170.575 130.116,170.739 130.547 C 170.968 131.147,170.207 131.355,169.644 130.846 C 168.962 130.228,168.791 130.620,169.404 131.399 C 170.015 132.177,170.074 132.643,169.585 132.831 C 169.252 132.958,167.640 131.285,165.724 128.821 C 165.270 128.238,164.796 127.760,164.670 127.760 C 164.289 127.760,164.415 128.764,164.816 128.918 C 165.022 128.997,165.190 129.163,165.190 129.286 C 165.190 129.410,165.499 129.860,165.876 130.285 C 166.776 131.300,167.648 132.311,167.908 132.642 C 168.191 133.001,168.684 133.933,168.684 134.107 C 168.684 134.374,167.536 134.248,167.236 133.949 C 167.004 133.716,166.937 133.716,166.937 133.949 C 166.937 134.114,167.049 134.248,167.187 134.248 C 167.324 134.248,167.436 134.428,167.436 134.647 C 167.436 134.999,169.069 137.915,169.448 138.241 C 169.528 138.309,169.656 138.537,169.733 138.747 C 169.925 139.270,174.978 146.751,176.385 148.596 C 182.326 156.385,191.679 166.034,199.000 171.928 C 199.938 172.682,200.880 173.497,201.094 173.737 C 201.308 173.977,201.580 174.173,201.698 174.173 C 201.816 174.173,202.435 174.595,203.075 175.109 C 203.714 175.624,204.350 176.136,204.489 176.247 C 205.166 176.790,210.377 180.412,210.481 180.412 C 210.546 180.412,211.324 180.907,212.208 181.513 C 213.093 182.118,214.048 182.687,214.332 182.777 C 214.615 182.867,214.847 183.045,214.847 183.173 C 214.847 183.301,214.999 183.406,215.184 183.406 C 215.369 183.406,215.959 183.718,216.494 184.099 C 217.603 184.888,223.749 187.939,228.197 189.909 C 229.829 190.632,235.688 192.488,237.804 192.954 C 239.769 193.385,246.425 193.353,247.536 192.906 C 251.165 191.446,254.434 188.720,256.237 185.652 C 257.464 183.563,258.765 180.850,258.765 180.380 C 258.765 180.178,258.861 179.906,258.979 179.775 C 259.096 179.645,259.424 178.752,259.707 177.792 C 261.467 171.816,261.469 171.897,259.576 170.269 C 254.669 166.047,250.318 163.660,244.417 161.955 C 240.145 160.720,233.001 160.729,228.240 161.974 C 227.072 162.279,224.828 161.578,224.828 160.908 C 224.828 160.811,224.584 160.655,224.286 160.560 C 223.988 160.466,223.623 160.284,223.475 160.157 C 223.021 159.767,220.760 158.356,219.746 157.829 C 219.217 157.555,218.729 157.190,218.661 157.018 C 218.593 156.847,218.403 156.706,218.240 156.706 C 218.077 156.706,217.194 156.214,216.279 155.613 C 215.364 155.012,214.471 154.450,214.294 154.363 C 214.118 154.276,213.675 154.010,213.310 153.771 C 212.944 153.533,212.102 153.011,211.438 152.611 C 210.774 152.212,209.479 151.398,208.560 150.802 C 207.641 150.207,206.832 149.719,206.763 149.719 C 206.694 149.719,206.155 149.399,205.565 149.008 C 203.486 147.629,200.994 146.059,200.624 145.895 C 200.418 145.803,199.407 145.168,198.378 144.483 C 197.349 143.798,196.170 143.078,195.758 142.883 C 195.346 142.688,194.729 142.313,194.386 142.051 C 194.042 141.788,193.032 141.138,192.140 140.605 C 191.248 140.071,190.369 139.490,190.188 139.312 C 190.007 139.135,189.760 138.989,189.639 138.989 C 189.519 138.989,188.937 138.681,188.347 138.303 C 186.577 137.171,186.330 137.029,184.963 136.354 C 184.241 135.998,183.258 135.337,182.779 134.886 L 181.909 134.065 181.920 130.975 C 181.927 128.938,182.053 127.545,182.290 126.887 C 183.078 124.701,182.619 122.838,181.671 124.373 C 181.380 124.844,181.061 125.266,180.962 125.310 C 180.863 125.354,180.415 125.860,179.965 126.434 C 177.588 129.471,174.166 129.802,171.304 127.272 C 171.029 127.029,170.612 126.729,170.377 126.604 C 170.142 126.480,169.131 125.585,168.131 124.617 C 166.352 122.892,165.639 122.404,165.339 122.704 M165.939 126.911 C 165.939 127.143,166.997 128.579,167.576 129.133 C 167.862 129.407,168.172 129.836,168.264 130.084 C 168.356 130.333,168.544 130.467,168.683 130.381 C 168.980 130.198,168.556 129.258,168.176 129.258 C 168.043 129.258,167.935 129.089,167.935 128.883 C 167.935 128.677,167.767 128.509,167.561 128.509 C 167.355 128.509,167.187 128.337,167.187 128.127 C 167.187 127.917,167.018 127.680,166.812 127.601 C 166.606 127.522,166.438 127.301,166.438 127.110 C 166.438 126.919,166.326 126.762,166.188 126.762 C 166.051 126.762,165.939 126.829,165.939 126.911 " stroke="none" fill="#000000" fill-rule="evenodd"></path><path id="path1" d="M156.332 56.650 C 153.483 57.278,149.841 58.766,149.169 59.575 C 149.026 59.747,148.771 59.888,148.602 59.888 C 147.673 59.888,142.828 65.262,142.080 67.124 C 141.997 67.330,141.659 68.060,141.329 68.746 C 139.383 72.797,139.154 79.943,140.843 83.968 C 141.463 85.445,142.832 88.149,143.101 88.426 C 143.252 88.582,143.627 89.121,143.936 89.626 C 144.916 91.228,149.809 95.321,150.744 95.321 C 150.876 95.321,151.233 95.475,151.537 95.664 C 151.841 95.852,152.679 96.189,153.400 96.412 C 154.120 96.636,155.243 96.987,155.895 97.194 C 157.484 97.697,163.161 97.692,164.566 97.186 C 165.115 96.988,165.742 96.824,165.960 96.822 C 166.476 96.817,170.001 95.282,170.559 94.819 C 171.042 94.418,174.838 94.417,176.419 94.817 C 181.601 96.129,181.983 95.482,180.313 88.210 C 179.577 85.003,179.539 84.335,180.019 82.978 C 181.355 79.198,181.311 74.673,179.896 70.368 C 176.703 60.647,166.128 54.491,156.332 56.650 M165.939 58.130 C 172.502 60.200,177.243 65.117,179.303 71.990 C 179.947 74.137,179.924 79.950,179.265 81.722 C 178.685 83.281,178.664 86.460,179.220 88.506 C 180.082 91.679,180.387 93.240,180.249 93.769 C 180.084 94.401,180.016 94.413,178.588 94.075 C 178.013 93.939,176.195 93.723,174.548 93.596 L 171.553 93.365 169.807 94.205 C 158.441 99.665,146.746 95.322,141.902 83.843 C 140.743 81.098,140.422 75.762,141.204 72.240 C 141.491 70.949,141.557 70.767,142.449 68.844 C 142.742 68.211,142.982 67.609,142.982 67.507 C 142.982 67.282,145.888 63.411,146.454 62.882 C 147.264 62.126,149.184 60.636,149.351 60.636 C 149.445 60.636,150.021 60.299,150.631 59.888 C 151.241 59.476,151.838 59.139,151.957 59.139 C 152.077 59.139,152.492 58.982,152.881 58.790 C 155.876 57.309,162.305 56.984,165.939 58.130 M225.827 62.894 C 223.764 63.616,223.680 63.625,222.781 63.226 C 219.953 61.972,214.919 63.616,214.856 65.814 C 214.850 66.014,214.460 66.126,213.769 66.126 C 211.404 66.126,208.858 67.798,208.858 69.352 C 208.858 69.575,208.682 70.010,208.465 70.319 C 207.841 71.211,207.704 73.461,208.226 74.258 C 208.602 74.832,208.639 75.322,208.505 77.946 C 207.557 96.451,209.571 104.080,216.256 107.316 L 217.406 107.873 217.247 109.270 C 216.595 114.986,213.555 118.135,206.737 120.152 C 204.516 120.810,201.303 122.057,200.854 122.437 C 200.637 122.620,200.332 122.770,200.176 122.770 C 199.808 122.770,196.532 124.557,196.423 124.817 C 196.378 124.926,196.198 125.016,196.025 125.016 C 195.092 125.016,189.818 129.724,188.792 131.474 C 187.881 133.027,187.438 133.972,187.281 134.702 C 187.033 135.847,185.300 135.887,184.404 134.767 C 184.336 134.681,183.971 134.415,183.593 134.174 C 182.840 133.695,182.593 130.549,183.147 128.509 C 184.147 124.833,183.886 122.271,182.513 122.271 C 181.868 122.271,180.537 123.479,180.276 124.301 C 180.134 124.749,179.494 125.095,179.174 124.897 C 179.067 124.831,178.918 124.241,178.844 123.586 C 178.670 122.058,178.230 119.833,177.696 117.779 L 177.275 116.157 171.351 116.090 C 164.781 116.016,164.821 116.006,165.384 117.623 C 166.103 119.685,166.042 121.125,165.222 121.434 C 164.706 121.629,164.410 121.947,164.295 122.432 C 164.201 122.824,163.985 123.313,163.813 123.518 C 163.641 123.724,163.428 124.342,163.340 124.891 C 163.252 125.440,163.116 126.242,163.038 126.673 C 162.863 127.640,163.877 130.699,165.135 133.001 C 165.622 133.893,166.353 135.240,166.758 135.995 C 167.163 136.750,167.618 137.520,167.768 137.706 C 168.048 138.054,168.462 138.736,168.926 139.613 C 169.071 139.888,169.412 140.449,169.683 140.861 C 169.954 141.273,170.307 141.862,170.468 142.171 C 170.629 142.480,170.854 142.732,170.970 142.732 C 171.085 142.732,171.179 142.839,171.179 142.969 C 171.179 143.524,175.828 149.799,179.543 154.259 C 180.707 155.657,181.660 156.976,181.661 157.190 C 181.664 157.912,181.128 161.564,180.878 162.527 C 180.205 165.117,179.527 170.216,179.772 170.852 C 180.171 171.892,180.608 170.582,181.287 166.313 C 182.713 157.337,182.609 157.577,184.239 159.513 C 186.708 162.446,192.865 168.268,197.879 172.412 C 198.222 172.695,198.840 173.208,199.251 173.551 C 201.806 175.682,203.101 176.669,203.343 176.669 C 203.494 176.669,203.619 176.753,203.620 176.856 C 203.621 176.959,204.042 177.317,204.556 177.652 C 205.069 177.988,205.602 178.382,205.739 178.529 C 205.876 178.676,206.887 179.380,207.985 180.093 C 209.083 180.806,210.095 181.486,210.234 181.603 C 210.373 181.721,212.057 182.745,213.977 183.878 C 215.897 185.010,217.636 186.040,217.842 186.165 C 218.047 186.290,219.114 186.852,220.212 187.414 C 221.310 187.976,222.377 188.523,222.583 188.629 C 222.789 188.736,223.350 188.992,223.830 189.198 C 224.311 189.405,225.209 189.798,225.827 190.073 C 227.734 190.923,231.139 192.204,232.938 192.750 C 233.487 192.917,234.105 193.128,234.311 193.220 C 234.713 193.398,236.416 193.781,238.428 194.146 C 245.361 195.402,250.197 194.099,254.312 189.865 C 255.606 188.534,257.268 186.345,257.268 185.971 C 257.268 185.886,257.423 185.639,257.614 185.422 C 258.158 184.803,259.513 182.132,259.513 181.680 C 259.513 181.455,259.667 181.050,259.856 180.779 C 260.044 180.508,260.283 179.898,260.387 179.422 C 260.490 178.946,260.665 178.384,260.776 178.174 C 261.002 177.744,261.304 176.571,262.031 173.300 C 263.287 167.653,262.960 156.128,261.368 149.952 C 261.172 149.189,261.011 148.213,261.011 147.784 C 261.011 147.355,260.911 146.942,260.789 146.867 C 260.668 146.792,260.491 146.308,260.396 145.792 C 260.101 144.189,258.586 139.536,258.225 139.127 C 258.110 138.996,258.016 138.654,258.016 138.366 C 258.016 138.077,257.914 137.735,257.790 137.604 C 257.665 137.474,257.257 136.638,256.882 135.745 C 255.913 133.438,255.571 132.727,255.018 131.878 C 254.750 131.466,254.411 130.856,254.266 130.522 C 253.714 129.255,249.990 123.948,248.333 122.068 C 246.454 119.936,242.952 116.535,241.219 115.159 C 236.851 111.692,236.755 111.429,236.857 103.187 L 236.931 97.205 237.555 97.021 C 237.898 96.920,238.459 96.779,238.802 96.708 C 241.863 96.076,244.439 90.613,243.068 87.662 C 242.889 87.277,242.573 86.607,242.366 86.172 C 242.160 85.738,241.554 84.928,241.020 84.373 C 239.869 83.174,239.873 83.231,240.343 74.979 L 240.642 69.734 240.031 68.449 C 239.373 67.065,238.006 65.809,236.497 65.202 C 235.984 64.995,235.251 64.470,234.868 64.033 C 233.020 61.928,229.757 61.517,225.827 62.894 M232.951 63.782 C 236.215 66.271,235.259 69.458,230.942 70.484 C 229.296 70.875,229.215 71.509,230.817 71.450 C 233.407 71.354,235.808 69.382,235.808 67.351 C 235.808 66.831,235.925 66.333,236.068 66.244 C 236.507 65.973,238.789 67.674,238.798 68.279 C 238.800 68.434,238.971 68.700,239.177 68.871 C 239.457 69.103,239.551 69.727,239.551 71.349 C 239.551 74.245,239.366 74.491,237.342 74.279 C 235.929 74.131,235.808 74.157,235.808 74.609 C 235.808 75.136,236.251 75.305,237.929 75.417 C 238.891 75.481,238.927 75.515,238.927 76.357 C 238.927 77.409,238.256 77.626,236.937 77.000 C 236.480 76.784,236.037 76.606,235.952 76.606 C 235.867 76.606,235.353 76.326,234.810 75.983 C 233.580 75.206,232.880 75.188,232.545 75.925 C 230.913 79.506,225.223 77.382,224.058 72.756 C 223.845 71.908,223.651 71.616,223.302 71.616 C 222.278 71.616,223.334 74.806,224.926 76.523 C 226.282 77.986,224.814 78.549,221.874 77.694 C 218.051 76.583,215.330 73.399,215.665 70.429 C 215.808 69.160,215.448 68.816,214.807 69.607 C 214.277 70.262,214.230 71.038,214.638 72.399 C 215.005 73.625,215.100 73.564,212.378 73.846 C 208.979 74.197,208.017 73.358,209.207 71.078 C 209.397 70.714,209.680 70.029,209.836 69.556 C 210.344 68.016,211.141 67.511,213.123 67.472 C 214.854 67.438,215.845 66.998,215.845 66.263 C 215.845 64.376,220.283 63.082,222.633 64.284 C 223.464 64.710,224.438 64.726,225.157 64.326 C 227.579 62.978,231.535 62.702,232.951 63.782 M217.060 76.045 C 218.621 77.398,219.094 77.686,221.406 78.691 C 222.588 79.205,225.111 79.227,226.069 78.731 C 226.620 78.446,227.063 78.413,227.990 78.588 C 229.729 78.916,231.470 78.488,232.627 77.448 C 233.589 76.583,233.932 76.445,234.166 76.824 C 234.412 77.221,237.057 78.353,237.749 78.357 C 238.964 78.364,239.079 78.595,239.000 80.870 C 238.928 82.937,238.917 82.971,238.262 83.046 C 236.858 83.209,237.085 84.203,238.581 84.442 C 244.447 85.380,242.824 96.070,236.816 96.070 C 235.667 96.070,235.557 96.670,235.569 102.886 C 235.580 108.217,235.659 109.118,236.328 111.511 L 236.634 112.605 235.036 114.066 C 234.157 114.870,233.118 115.781,232.728 116.092 C 232.337 116.402,231.439 117.142,230.731 117.735 C 223.159 124.083,215.319 125.262,214.211 120.219 C 214.128 119.841,213.957 119.468,213.830 119.389 C 213.422 119.137,213.584 118.362,214.173 117.751 C 216.481 115.357,217.609 113.184,218.174 110.044 L 218.465 108.422 219.464 108.357 C 221.013 108.256,224.161 107.507,224.599 107.135 C 224.815 106.950,225.130 106.800,225.298 106.800 C 226.447 106.800,232.065 102.672,232.065 101.827 C 232.065 101.411,231.348 101.345,231.027 101.732 C 229.401 103.692,224.788 106.263,221.778 106.887 C 217.556 107.763,212.477 104.454,211.238 100.022 C 211.149 99.701,210.924 99.046,210.739 98.565 C 209.733 95.958,208.952 89.160,209.197 85.153 C 209.858 74.346,209.687 75.147,211.354 75.083 C 211.834 75.065,212.564 74.964,212.976 74.860 C 214.817 74.391,215.320 74.537,217.060 76.045 M213.174 80.371 C 211.079 81.713,212.652 83.399,214.785 82.099 C 215.576 81.617,215.712 81.366,215.600 80.599 C 215.473 79.727,214.345 79.621,213.174 80.371 M222.835 80.221 C 222.371 80.781,222.742 81.787,223.572 82.216 C 225.685 83.309,226.912 81.638,224.947 80.343 C 224.061 79.759,223.257 79.713,222.835 80.221 M217.509 84.508 C 217.036 84.981,217.337 94.318,217.842 94.822 C 218.416 95.396,219.880 95.497,220.300 94.991 C 220.657 94.562,220.199 94.074,219.440 94.074 C 218.644 94.074,218.590 93.738,218.590 88.813 C 218.590 84.254,218.424 83.593,217.509 84.508 M213.342 85.853 C 212.962 86.564,213.476 87.137,214.301 86.922 C 214.744 86.806,214.857 86.623,214.798 86.118 C 214.698 85.253,213.755 85.082,213.342 85.853 M222.678 85.700 C 222.436 86.331,222.696 86.960,223.231 87.036 C 223.978 87.144,224.438 86.509,224.088 85.855 C 223.772 85.264,222.883 85.166,222.678 85.700 M238.415 87.575 C 236.915 88.183,235.631 91.954,236.639 92.791 C 236.977 93.072,237.081 93.001,237.386 92.285 C 237.581 91.828,238.092 91.017,238.521 90.483 C 239.253 89.573,239.275 89.490,238.865 89.157 C 238.590 88.934,238.530 88.758,238.704 88.684 C 240.194 88.048,239.913 86.969,238.415 87.575 M225.578 94.945 C 225.086 95.538,223.340 96.661,221.757 97.401 C 220.976 97.767,219.719 98.355,218.964 98.708 C 217.314 99.480,217.317 99.459,218.677 101.114 C 220.768 103.658,224.517 101.985,226.078 97.813 C 226.854 95.735,226.520 93.811,225.578 94.945 M224.828 97.600 C 224.828 99.915,220.811 102.326,219.722 100.665 C 219.243 99.934,219.715 99.064,220.590 99.064 C 221.009 99.064,223.731 97.724,224.192 97.291 C 224.586 96.920,224.828 97.038,224.828 97.600 M237.979 113.862 C 238.089 114.040,239.185 114.966,240.415 115.920 C 244.064 118.749,251.029 126.252,251.029 127.354 C 251.029 127.423,251.507 128.188,252.091 129.055 C 252.675 129.921,253.409 131.135,253.722 131.753 C 254.036 132.371,254.400 133.044,254.532 133.250 C 254.919 133.851,256.931 138.306,257.125 138.989 C 257.222 139.333,257.455 139.950,257.643 140.362 C 258.940 143.208,260.703 150.895,261.363 156.581 C 261.890 161.117,261.988 168.934,261.527 169.662 C 261.262 170.081,260.832 169.844,258.862 168.196 C 257.119 166.738,257.054 166.687,256.903 166.687 C 256.828 166.687,256.065 166.201,255.208 165.606 C 254.351 165.012,253.088 164.254,252.402 163.922 C 251.716 163.591,251.097 163.244,251.027 163.152 C 250.957 163.059,250.564 162.901,250.153 162.800 C 249.743 162.699,249.183 162.483,248.908 162.321 C 248.634 162.159,247.735 161.826,246.912 161.582 C 246.089 161.337,245.046 160.982,244.595 160.793 C 244.145 160.604,243.480 160.449,243.118 160.449 C 242.756 160.449,241.496 160.267,240.319 160.045 C 238.020 159.610,232.898 159.676,231.441 160.159 C 228.820 161.028,227.324 160.630,227.324 159.064 C 227.324 158.596,227.165 157.790,226.971 157.273 C 226.777 156.755,226.558 155.901,226.484 155.374 C 226.336 154.318,225.949 153.712,225.422 153.712 C 225.060 153.712,224.941 154.740,225.265 155.063 C 225.458 155.254,225.965 157.513,226.237 159.389 C 226.384 160.405,226.092 160.831,225.692 160.184 C 225.602 160.039,225.287 159.814,224.991 159.685 C 224.696 159.556,223.612 158.894,222.583 158.214 C 221.553 157.534,220.150 156.677,219.464 156.310 C 218.777 155.943,218.160 155.572,218.091 155.486 C 217.931 155.284,213.853 152.714,213.694 152.714 C 213.584 152.714,210.128 150.520,208.609 149.486 C 208.266 149.253,207.817 148.984,207.611 148.889 C 207.405 148.794,206.935 148.520,206.566 148.282 C 206.197 148.043,204.850 147.200,203.572 146.409 C 202.293 145.618,200.012 144.188,198.503 143.232 C 196.993 142.276,195.533 141.378,195.259 141.236 C 194.984 141.094,194.466 140.783,194.107 140.545 C 193.146 139.908,189.947 137.909,189.385 137.595 C 187.899 136.763,187.647 135.774,188.552 134.319 C 188.741 134.015,188.896 133.656,188.896 133.521 C 188.896 132.435,192.688 128.438,195.490 126.572 C 198.000 124.900,201.983 122.770,202.599 122.770 C 202.752 122.770,203.071 122.663,203.310 122.532 C 204.534 121.861,208.459 120.529,209.250 120.516 C 209.515 120.512,209.950 120.343,210.216 120.142 C 210.483 119.940,210.867 119.775,211.070 119.775 C 211.273 119.775,211.631 119.602,211.865 119.390 C 212.262 119.031,213.350 120.194,213.350 120.979 C 213.350 123.375,218.233 125.208,221.746 124.131 C 225.319 123.036,232.597 118.157,236.072 114.527 C 236.997 113.561,237.653 113.332,237.979 113.862 M176.601 117.904 C 176.797 118.453,177.108 119.744,177.291 120.774 C 177.474 121.803,177.758 123.347,177.922 124.206 C 178.868 129.163,174.760 129.297,169.589 124.476 C 167.482 122.511,166.741 120.883,166.702 118.133 C 166.682 116.719,166.516 116.763,171.638 116.838 L 176.245 116.906 176.601 117.904 M171.851 117.455 C 171.595 117.521,171.434 117.751,171.479 117.987 C 171.582 118.526,175.379 118.749,175.697 118.235 C 176.186 117.445,173.776 116.956,171.851 117.455 M167.517 123.955 C 168.364 124.744,169.114 125.450,169.183 125.523 C 173.636 130.270,177.023 130.040,181.274 124.704 C 181.794 124.052,182.327 123.518,182.459 123.518 C 182.737 123.518,182.588 126.003,182.197 127.885 C 182.055 128.571,181.932 130.182,181.924 131.464 C 181.905 134.478,182.036 134.678,185.069 136.243 C 185.733 136.586,186.985 137.344,187.851 137.928 C 188.718 138.512,189.544 138.989,189.687 138.989 C 189.830 138.989,190.372 139.326,190.892 139.738 C 191.412 140.150,191.894 140.487,191.963 140.487 C 192.033 140.487,193.140 141.162,194.423 141.987 C 195.706 142.812,196.981 143.600,197.255 143.738 C 197.530 143.875,198.048 144.182,198.407 144.420 C 199.044 144.843,202.003 146.702,202.989 147.299 C 203.260 147.464,204.215 148.056,205.110 148.615 C 206.005 149.173,207.467 150.064,208.359 150.595 C 209.251 151.125,210.329 151.818,210.753 152.136 C 211.178 152.454,211.647 152.714,211.796 152.714 C 211.945 152.714,212.215 152.859,212.396 153.037 C 212.578 153.214,213.456 153.796,214.348 154.330 C 215.240 154.864,216.307 155.554,216.720 155.862 C 217.132 156.170,217.750 156.546,218.092 156.697 C 218.435 156.847,219.557 157.529,220.586 158.211 C 221.616 158.893,222.682 159.565,222.957 159.704 C 223.231 159.843,223.755 160.152,224.120 160.390 C 226.881 162.190,227.064 162.261,228.158 161.948 C 230.410 161.303,235.206 160.668,236.931 160.786 C 243.460 161.233,247.638 162.466,253.150 165.572 C 253.974 166.036,254.888 166.526,255.183 166.660 C 255.477 166.795,255.758 166.996,255.807 167.108 C 255.917 167.361,257.930 168.933,258.143 168.933 C 258.229 168.933,258.909 169.522,259.655 170.242 C 261.467 171.990,261.468 172.071,259.775 177.667 C 258.089 183.240,256.444 186.169,253.166 189.442 C 251.569 191.036,248.501 192.888,247.458 192.888 C 247.242 192.888,247.003 192.990,246.926 193.115 C 246.363 194.027,238.580 193.487,234.934 192.282 C 234.386 192.101,233.319 191.761,232.564 191.527 C 231.261 191.124,230.498 190.847,228.197 189.946 C 227.046 189.495,221.323 186.846,220.212 186.251 C 217.085 184.574,215.935 183.915,213.885 182.627 C 212.602 181.820,211.495 181.160,211.426 181.160 C 211.357 181.160,210.891 180.852,210.391 180.474 C 209.890 180.097,209.289 179.676,209.056 179.538 C 206.546 178.064,203.553 175.729,194.637 168.288 C 187.755 162.544,177.363 150.618,171.825 142.109 C 170.753 140.462,169.664 138.810,169.405 138.438 C 169.145 138.066,168.933 137.689,168.933 137.601 C 168.933 137.512,168.596 136.941,168.185 136.331 C 167.773 135.721,167.436 135.065,167.436 134.874 C 167.436 134.683,167.324 134.458,167.187 134.373 C 167.049 134.288,166.937 134.035,166.937 133.809 C 166.937 133.491,167.004 133.466,167.236 133.699 C 168.441 134.903,168.777 133.707,167.604 132.389 C 166.387 131.021,164.503 128.587,164.367 128.205 C 164.127 127.533,164.688 127.395,165.125 128.019 C 165.341 128.328,165.978 129.108,166.540 129.752 C 167.101 130.397,167.927 131.347,168.374 131.863 C 168.877 132.445,169.327 132.749,169.555 132.662 C 169.972 132.502,169.794 131.749,169.264 131.429 C 169.082 131.319,168.928 131.094,168.923 130.930 C 168.917 130.765,168.580 130.355,168.174 130.018 C 167.768 129.681,167.436 129.312,167.436 129.197 C 167.436 129.081,167.200 128.739,166.912 128.436 C 166.623 128.133,166.090 127.492,165.726 127.012 C 165.363 126.532,164.897 126.006,164.691 125.843 C 164.418 125.628,164.391 125.473,164.592 125.269 C 164.793 125.064,164.982 125.167,165.302 125.654 C 165.541 126.019,166.119 126.690,166.586 127.143 C 167.054 127.597,167.436 128.035,167.436 128.116 C 167.436 128.562,169.928 131.004,170.382 131.004 C 170.708 131.004,170.573 130.047,170.205 129.757 C 170.119 129.688,169.320 128.749,168.430 127.671 C 167.540 126.592,166.447 125.327,166.001 124.859 C 163.915 122.671,165.270 121.863,167.517 123.955 " stroke="none" fill="#ffffff" fill-rule="evenodd"></path><path id="path2" d="M219.651 63.803 C 219.891 63.865,220.284 63.865,220.524 63.803 C 220.764 63.740,220.568 63.689,220.087 63.689 C 219.607 63.689,219.410 63.740,219.651 63.803 M154.748 70.459 C 149.356 72.411,150.976 80.215,157.708 84.716 C 158.323 85.128,158.976 85.605,159.157 85.777 C 159.968 86.544,161.314 86.154,163.466 84.529 C 165.434 83.043,168.185 80.087,168.185 79.458 C 168.185 79.296,168.334 79.039,168.516 78.888 C 170.067 77.600,169.767 73.430,167.988 71.564 C 166.379 69.876,163.232 69.896,161.553 71.607 C 160.635 72.542,160.341 72.544,159.418 71.621 C 158.235 70.438,156.203 69.932,154.748 70.459 M240.617 71.117 C 240.617 71.734,240.666 71.987,240.725 71.678 C 240.785 71.369,240.785 70.864,240.725 70.555 C 240.666 70.246,240.617 70.499,240.617 71.117 M179.743 76.856 C 179.743 77.748,179.788 78.113,179.844 77.667 C 179.899 77.221,179.899 76.491,179.844 76.045 C 179.788 75.599,179.743 75.964,179.743 76.856 M139.560 76.981 C 139.562 77.667,139.610 77.918,139.668 77.539 C 139.725 77.159,139.723 76.598,139.664 76.291 C 139.605 75.984,139.558 76.294,139.560 76.981 M209.665 77.355 C 209.665 77.835,209.716 78.032,209.779 77.792 C 209.842 77.551,209.842 77.158,209.779 76.918 C 209.716 76.678,209.665 76.875,209.665 77.355 M223.269 78.030 C 223.578 78.090,224.083 78.090,224.392 78.030 C 224.701 77.971,224.448 77.922,223.830 77.922 C 223.213 77.922,222.960 77.971,223.269 78.030 M240.144 80.599 C 240.144 82.177,240.185 82.823,240.234 82.034 C 240.284 81.245,240.284 79.953,240.234 79.164 C 240.185 78.375,240.144 79.021,240.144 80.599 M209.204 86.837 C 209.204 88.553,209.244 89.255,209.293 88.397 C 209.341 87.539,209.341 86.135,209.293 85.278 C 209.244 84.420,209.204 85.122,209.204 86.837 M168.760 115.969 C 170.242 116.013,172.601 116.013,174.000 115.969 C 175.399 115.924,174.186 115.888,171.304 115.889 C 168.422 115.889,167.277 115.925,168.760 115.969 M169.258 116.967 C 170.603 117.012,172.737 117.012,173.999 116.967 C 175.262 116.922,174.161 116.885,171.553 116.885 C 168.946 116.885,167.913 116.922,169.258 116.967 M173.113 118.708 C 173.559 118.764,174.289 118.764,174.735 118.708 C 175.181 118.653,174.816 118.608,173.924 118.608 C 173.032 118.608,172.667 118.653,173.113 118.708 M165.714 126.669 C 165.685 127.303,166.306 127.926,166.559 127.517 C 166.650 127.370,166.586 127.280,166.416 127.318 C 166.247 127.355,166.025 127.105,165.923 126.762 C 165.759 126.207,165.736 126.197,165.714 126.669 M169.095 130.504 C 169.390 130.623,169.705 130.840,169.796 130.987 C 169.887 131.134,170.082 131.254,170.229 131.254 C 170.377 131.254,170.212 131.029,169.863 130.755 C 169.514 130.480,169.078 130.263,168.894 130.272 C 168.710 130.280,168.800 130.385,169.095 130.504 M167.122 133.772 C 167.292 133.991,167.377 134.224,167.311 134.290 C 167.245 134.357,167.554 134.350,167.999 134.277 C 168.731 134.155,168.749 134.133,168.185 134.047 C 167.842 133.994,167.392 133.821,167.187 133.663 C 166.869 133.419,166.860 133.436,167.122 133.772 M235.253 160.882 C 235.840 160.934,236.738 160.934,237.249 160.880 C 237.760 160.826,237.280 160.783,236.182 160.784 C 235.084 160.785,234.666 160.829,235.253 160.882 M191.266 165.190 C 191.802 165.739,192.297 166.188,192.366 166.188 C 192.434 166.188,192.052 165.739,191.516 165.190 C 190.980 164.641,190.485 164.192,190.416 164.192 C 190.348 164.192,190.730 164.641,191.266 165.190 M262.835 166.064 C 262.836 166.887,262.883 167.194,262.938 166.745 C 262.994 166.297,262.993 165.623,262.936 165.248 C 262.879 164.873,262.833 165.240,262.835 166.064 M241.859 193.569 C 242.374 193.623,243.216 193.623,243.731 193.569 C 244.245 193.515,243.824 193.471,242.795 193.471 C 241.765 193.471,241.344 193.515,241.859 193.569 " stroke="none" fill="#ec2c2c" fill-rule="evenodd"></path></g></svg>